<?xml version="1.0" standalone="no"?>
<!DOCTYPE svg PUBLIC "-//W3C//DTD SVG 20010904//EN"
 "http://www.w3.org/TR/2001/REC-SVG-20010904/DTD/svg10.dtd">
<svg version="1.0" xmlns="http://www.w3.org/2000/svg"
 width="1080.000000pt" height="1080.000000pt" viewBox="0 0 1080.000000 1080.000000"
 preserveAspectRatio="xMidYMid meet">
<metadata>
Created by potrace 1.14, written by Peter Selinger 2001-2017
</metadata>
<g transform="translate(0.000000,1080.000000) scale(0.100000,-0.100000)"
fill="#000000" stroke="none">
<path d="M3095 10790 c3 -5 10 -10 16 -10 5 0 9 5 9 10 0 6 -7 10 -16 10 -8 0
-12 -4 -9 -10z"/>
<path d="M3200 10790 c0 -5 18 -10 40 -10 57 0 55 -26 -2 -33 -24 -2 -58 -10
-76 -18 -28 -12 -34 -12 -42 0 -7 12 -11 12 -24 2 -9 -8 -69 -24 -134 -36 -64
-12 -134 -29 -155 -38 -21 -9 -67 -20 -103 -23 -35 -4 -64 -10 -64 -14 0 -9
-43 -20 -135 -35 -22 -4 -49 -10 -60 -15 -36 -15 -231 -31 -367 -30 -138 2
-250 -18 -274 -47 -7 -7 -35 -14 -68 -16 -31 -1 -56 -5 -56 -8 0 -4 -14 -9
-31 -13 -17 -3 -28 -10 -24 -16 4 -6 -8 -10 -29 -10 -20 0 -54 -7 -76 -16 -34
-14 -45 -14 -73 -4 -17 7 -36 18 -42 25 -5 6 -17 14 -25 17 -18 6 -60 -8 -60
-20 0 -5 10 -14 23 -20 22 -10 22 -11 -5 -11 -16 -1 -28 -7 -28 -14 0 -7 -9
-18 -20 -25 -17 -11 -26 -10 -53 5 -18 10 -33 21 -35 26 -7 14 -70 7 -113 -12
-24 -11 -47 -17 -52 -14 -5 3 -24 -10 -43 -28 -19 -19 -37 -33 -40 -31 -11 6
-24 1 -24 -10 -1 -16 -35 -58 -48 -58 -14 0 -46 -66 -39 -82 3 -9 18 -19 34
-23 45 -11 54 -24 47 -63 l-7 -34 44 6 c157 23 192 24 314 14 72 -5 134 -14
139 -19 6 -5 33 -9 62 -9 43 0 53 -3 57 -20 4 -17 1 -19 -18 -14 -15 4 -31 -2
-49 -20 -35 -32 -104 -55 -186 -63 -61 -5 -160 -39 -160 -55 0 -4 -14 -15 -31
-23 -22 -12 -34 -13 -43 -6 -10 8 -17 7 -26 -4 -10 -12 -10 -15 4 -15 22 0 21
-29 -1 -37 -10 -4 -24 -15 -31 -25 -18 -25 -32 -22 -32 7 0 33 -14 32 -39 -4
-14 -19 -40 -36 -74 -47 -39 -14 -46 -19 -30 -22 13 -2 23 -7 23 -11 0 -15
-29 -33 -41 -26 -6 4 -24 -2 -39 -14 -16 -11 -35 -18 -43 -15 -8 3 -18 1 -22
-5 -3 -6 0 -11 8 -11 12 0 27 -39 27 -69 0 -3 -20 -5 -45 -3 -36 3 -45 8 -45
23 0 20 -16 24 -39 10 -7 -5 -11 -17 -7 -27 5 -17 18 -19 106 -21 80 -1 100 2
100 13 0 9 12 14 37 14 28 0 42 -7 64 -31 18 -21 34 -29 44 -25 9 3 13 2 10
-3 -8 -13 35 -41 62 -41 13 0 23 -4 23 -8 0 -27 88 -34 220 -18 212 25 681 1
758 -40 20 -10 22 -14 9 -14 -20 0 -53 -27 -44 -36 5 -5 298 -5 357 1 19 2
118 8 220 14 186 10 581 47 611 56 9 3 50 6 90 6 41 0 90 4 109 9 87 23 376
52 690 70 107 6 224 15 260 21 36 6 121 12 190 14 104 4 116 3 75 -6 -200 -41
-478 -123 -538 -159 -52 -32 -258 -94 -267 -81 -5 9 -19 9 -51 2 -24 -5 -105
-15 -179 -21 -288 -23 -539 -73 -765 -150 -122 -42 -187 -59 -243 -64 -26 -2
-116 -30 -202 -64 -85 -33 -218 -79 -295 -101 -222 -65 -251 -75 -425 -149
-257 -110 -743 -363 -770 -402 -3 -4 -61 -40 -130 -80 -136 -80 -294 -200
-330 -249 -12 -18 -74 -73 -138 -124 -163 -129 -193 -151 -224 -165 l-28 -12
0 -298 0 -299 44 10 c52 12 91 -6 102 -48 7 -30 -41 -131 -73 -152 -13 -9 -21
-19 -18 -23 3 -4 -9 -22 -25 -40 l-30 -32 0 -2209 c0 -1486 3 -2214 10 -2222
6 -7 18 -22 28 -33 156 -192 294 -339 407 -432 67 -56 127 -109 211 -190 8 -7
14 -18 14 -23 0 -5 8 -13 19 -17 10 -4 56 -42 102 -86 46 -43 126 -113 178
-155 84 -68 161 -133 231 -195 14 -12 52 -43 85 -69 33 -26 67 -53 75 -60 8
-7 35 -26 60 -41 25 -16 57 -37 72 -47 35 -24 195 -99 211 -99 7 0 18 -5 23
-10 6 -6 22 -13 37 -15 14 -3 83 -21 153 -40 70 -19 135 -35 145 -35 9 0 19
-4 21 -9 2 -5 21 -12 43 -15 22 -4 74 -15 115 -26 194 -51 385 -85 545 -95
115 -7 208 -21 460 -71 190 -37 425 -67 655 -84 131 -9 765 1 910 15 159 15
264 34 495 90 143 34 330 79 415 99 85 21 200 48 255 61 213 51 358 77 380 69
14 -6 97 14 215 50 90 28 235 63 465 111 334 70 455 105 579 167 91 46 344
202 426 262 135 101 252 195 333 270 49 45 95 84 102 89 7 4 23 23 36 43 12
20 88 89 168 152 240 190 287 244 494 552 65 96 145 213 178 260 81 115 289
458 289 477 0 11 111 225 175 337 88 156 148 278 170 346 9 30 31 72 48 94 18
23 44 81 64 145 44 135 63 186 109 290 53 122 111 419 118 611 2 47 11 114 21
148 14 54 16 98 12 280 -2 120 -9 262 -15 317 -6 55 -16 163 -21 240 -13 180
-32 285 -92 525 -36 141 -62 221 -95 290 -57 118 -124 299 -124 333 0 31 -48
155 -95 247 -19 36 -47 95 -63 131 -16 36 -54 94 -84 130 -30 35 -62 76 -72
92 -10 15 -24 27 -31 27 -17 0 -38 27 -40 50 -2 25 -38 70 -132 165 -121 123
-252 237 -313 274 -78 47 -150 103 -150 117 0 31 -265 334 -293 334 -16 0
-108 80 -257 225 -80 78 -174 163 -210 190 -36 27 -88 69 -117 93 -54 45 -99
63 -293 117 -47 13 -141 40 -210 60 -476 139 -516 147 -838 185 -188 23 -196
23 -300 7 -142 -22 -293 -31 -312 -18 -30 20 8 33 114 38 58 3 106 10 106 14
0 5 10 9 23 9 12 0 29 5 37 10 11 7 -5 10 -52 10 -43 0 -68 4 -68 11 0 6 -7 8
-17 5 -10 -4 -14 -4 -10 0 4 4 -5 17 -18 30 -31 29 -31 34 0 34 13 0 29 8 34
18 6 12 35 25 82 36 40 10 83 26 96 36 12 10 43 24 68 31 25 7 45 17 45 21 0
4 5 8 11 8 6 0 34 18 61 40 28 22 59 40 69 40 11 0 19 4 19 9 0 17 39 19 157
9 l118 -10 89 36 c49 20 95 36 104 36 8 0 23 6 31 14 21 17 155 58 195 58 123
2 182 -5 198 -22 14 -15 15 -19 3 -24 -8 -3 -15 -11 -15 -17 0 -7 -8 -18 -18
-25 -14 -11 -15 -13 -2 -18 24 -8 162 -27 195 -27 56 1 180 1 230 0 28 -1 121
2 208 6 153 8 266 0 367 -25 54 -14 239 -40 281 -40 28 0 38 -5 42 -19 3 -12
-1 -22 -11 -26 -38 -14 6 -14 144 0 82 8 178 20 214 25 35 6 74 9 85 6 11 -3
63 -8 115 -11 159 -9 184 -13 219 -31 27 -14 40 -15 69 -6 19 6 39 9 44 6 14
-9 129 7 123 16 -3 5 12 10 32 12 24 2 37 8 35 16 -1 6 5 12 13 12 23 0 65 30
65 46 0 7 -17 30 -37 51 l-38 37 42 8 c24 4 53 4 65 1 39 -10 82 -10 96 0 7 6
17 5 26 -2 9 -8 21 -8 44 0 25 8 38 8 62 -5 19 -9 43 -13 61 -9 l30 6 -27 13
c-15 8 -51 15 -81 17 -29 1 -53 5 -53 9 0 3 71 5 158 3 203 -4 192 -3 192 -19
0 -8 14 -17 30 -21 39 -9 31 -23 -10 -17 -18 2 -30 0 -30 -7 0 -7 25 -11 70
-11 l70 0 0 335 0 335 -540 0 c-487 0 -544 -2 -573 -17 -38 -20 -172 -51 -277
-65 -74 -9 -112 -8 -260 12 -206 27 -554 22 -815 -11 -44 -6 -332 -12 -640
-14 -505 -3 -754 -9 -870 -21 -22 -2 -132 -14 -245 -25 -297 -31 -739 -31
-925 0 -71 12 -177 26 -235 31 -160 15 -175 18 -226 45 -26 14 -53 25 -60 25
-8 0 -14 5 -14 10 0 6 13 10 29 10 17 0 33 5 36 10 4 7 -328 10 -989 10 -657
0 -996 -3 -996 -10z m2205 -1086 c9 -13 35 -16 147 -18 75 0 134 2 131 7 -2 4
19 7 46 7 28 0 51 -4 51 -10 0 -5 -6 -10 -12 -10 -9 0 -8 -4 2 -10 11 -8 1
-10 -35 -8 -31 2 -54 -2 -60 -10 -8 -9 -62 -12 -235 -10 l-225 3 60 37 c64 40
111 48 130 22z m1340 -132 c88 -15 100 -19 100 -37 0 -25 -35 -29 -164 -20
-75 6 -97 11 -114 28 -19 19 -19 21 -2 34 24 17 56 16 180 -5z m-1917 -12 c9
0 12 -3 7 -8 -9 -8 -152 -33 -185 -32 -39 1 25 21 85 27 46 4 62 9 53 15 -9 7
-8 8 5 4 10 -3 26 -6 35 -6z m1361 -36 c1 -1 -8 -27 -22 -56 -13 -29 -31 -71
-38 -93 -7 -22 -20 -48 -29 -59 -11 -13 -16 -47 -18 -117 -3 -66 -8 -99 -15
-100 -7 0 -2 -4 11 -9 16 -7 22 -18 22 -40 0 -17 -5 -30 -12 -30 -9 0 -8 -3 1
-9 23 -15 -32 -25 -57 -12 -28 15 -35 14 -29 -3 5 -11 0 -11 -23 2 -31 18 -30
29 4 42 17 7 12 9 -23 9 -25 1 -63 -8 -85 -18 -23 -10 -72 -34 -111 -52 l-70
-33 40 -9 c22 -5 90 -11 150 -13 140 -4 258 -26 283 -51 19 -19 136 -17 167 3
22 14 25 14 44 -5 12 -12 30 -21 41 -21 11 0 30 -5 43 -12 12 -6 29 -14 37
-18 8 -4 15 -15 15 -26 0 -13 12 -22 42 -30 38 -11 43 -11 48 6 8 26 37 34 51
16 6 -9 16 -16 21 -16 6 0 16 -6 22 -14 7 -8 21 -12 32 -9 25 7 69 -32 69 -61
1 -20 46 -56 115 -94 13 -7 38 -27 57 -46 24 -24 46 -35 80 -40 26 -4 49 -13
52 -21 3 -8 13 -15 23 -15 10 0 31 -7 47 -15 16 -9 35 -14 41 -11 7 2 26 -9
43 -25 22 -21 42 -29 69 -30 38 -1 100 -16 74 -18 -11 -1 -11 -5 2 -19 10 -10
17 -23 17 -28 0 -29 30 -66 70 -86 27 -14 45 -30 45 -40 0 -20 -63 -88 -82
-88 -13 0 -16 -10 -14 -40 0 -10 -1 -11 -5 -2 -10 21 -19 14 -33 -24 -11 -30
-11 -38 0 -45 17 -11 27 -11 68 -3 29 6 32 10 26 33 -4 14 -13 34 -22 43 -13
15 -12 18 16 33 17 8 31 12 31 8 0 -5 12 -16 28 -25 l27 -17 -27 -1 c-16 0
-28 -6 -28 -13 0 -9 16 -13 53 -12 51 0 52 0 52 -30 0 -28 -2 -30 -37 -29 -41
1 -49 -9 -19 -26 29 -15 77 -12 91 5 7 8 21 15 31 15 11 0 19 5 19 10 0 19 19
10 26 -12 14 -47 33 -58 100 -58 63 0 63 0 54 -24 -11 -29 -5 -36 29 -36 15 0
36 -11 50 -25 13 -14 29 -25 37 -25 15 0 37 -36 30 -49 -3 -5 0 -11 7 -14 8
-3 21 -20 30 -39 l16 -33 -47 -45 c-30 -28 -68 -52 -102 -64 -57 -19 -90 -46
-90 -75 -1 -27 -34 -57 -70 -63 -19 -4 -43 -9 -52 -13 -13 -5 -19 0 -24 20 -5
19 -10 23 -17 16 -6 -6 -21 -11 -34 -11 -19 0 -23 -5 -23 -34 0 -29 -4 -35
-27 -41 -16 -3 -37 -14 -47 -23 -18 -16 -19 -16 -13 19 6 38 -6 61 -28 53 -6
-3 -18 2 -25 11 -10 12 -16 13 -27 4 -18 -15 -27 -5 -29 32 -1 18 3 29 12 29
7 0 21 14 30 31 17 33 61 79 75 79 5 0 9 -7 9 -15 0 -23 29 -75 41 -75 6 0 8
7 5 16 -4 10 1 25 10 35 9 10 19 38 21 62 4 37 1 48 -21 72 -14 15 -26 23 -26
17 0 -13 -28 -42 -41 -42 -5 0 -3 15 5 34 13 32 13 34 -6 39 -11 3 -22 15 -25
26 -3 12 -8 21 -12 21 -12 0 -31 -39 -37 -79 -4 -28 -10 -38 -20 -34 -8 3 -14
-1 -14 -11 0 -9 -18 -29 -40 -44 -35 -24 -39 -32 -40 -69 0 -36 3 -42 22 -45
13 -2 24 -10 25 -18 6 -33 -15 -44 -99 -49 -46 -4 -89 -10 -95 -14 -10 -6 -13
0 -13 22 0 17 -5 31 -11 31 -6 0 -9 -9 -6 -19 6 -26 -48 -91 -76 -91 -16 0 -7
-9 33 -33 30 -19 57 -31 60 -28 24 29 93 42 84 16 -4 -8 -18 -15 -34 -15 -15
0 -33 -7 -40 -15 -9 -11 -16 -12 -25 -5 -8 7 -24 5 -51 -7 -21 -10 -43 -18
-49 -18 -33 -2 -43 -17 -119 -175 -41 -86 -45 -103 -47 -177 -2 -77 0 -83 26
-109 15 -15 36 -46 46 -69 10 -23 27 -52 37 -66 11 -13 33 -48 50 -78 25 -44
28 -57 19 -72 -9 -15 -8 -26 5 -51 24 -49 30 -94 13 -108 -22 -18 -94 -4 -183
37 -110 50 -113 51 -157 57 -180 25 -315 13 -410 -33 -33 -17 -74 -44 -92 -61
-18 -16 -34 -30 -36 -30 -10 0 -76 -32 -129 -62 -58 -34 -158 -121 -158 -139
0 -5 -7 -12 -15 -15 -8 -4 -15 -12 -15 -20 0 -8 -4 -14 -8 -14 -4 0 -13 -15
-20 -33 -6 -18 -37 -62 -67 -97 -30 -36 -76 -105 -101 -155 -25 -49 -53 -99
-62 -110 -28 -33 -62 -84 -62 -92 0 -5 -13 -24 -29 -44 -16 -19 -39 -67 -50
-107 -12 -40 -26 -72 -30 -72 -20 0 -27 -112 -18 -255 5 -73 58 -269 87 -319
33 -59 28 -68 -57 -113 -43 -22 -79 -47 -81 -56 -4 -21 44 -45 97 -48 31 -2
42 -8 47 -23 4 -12 15 -29 25 -39 24 -23 24 -34 -1 -47 -15 -8 -19 -19 -17
-43 2 -32 2 -32 -48 -35 -27 -1 -57 -5 -65 -9 -8 -3 -21 -5 -27 -4 -7 1 -13
-5 -13 -12 0 -27 25 -35 130 -40 85 -4 114 -9 152 -29 46 -23 47 -25 30 -42
-16 -17 -16 -18 14 -11 24 5 33 2 38 -11 3 -9 1 -22 -5 -30 -6 -7 -8 -21 -5
-32 10 -30 -58 -82 -106 -82 -13 0 -28 -4 -34 -9 -11 -10 -139 -31 -196 -31
-52 0 -85 -24 -90 -65 -2 -24 2 -32 26 -43 16 -8 39 -15 51 -16 13 0 21 -4 18
-8 -2 -5 3 -8 12 -8 9 0 45 -13 80 -30 35 -16 67 -30 71 -30 4 0 29 -14 56
-31 l49 -32 -28 -29 c-15 -17 -37 -35 -48 -40 -193 -97 -219 -114 -228 -143
-14 -42 -85 -125 -108 -125 -25 0 -24 -16 1 -23 26 -7 27 -56 2 -87 -16 -20
-21 -21 -41 -10 -18 9 -22 18 -19 41 l4 28 -59 -31 c-49 -26 -62 -30 -78 -20
-10 7 -26 12 -34 12 -9 0 -27 7 -41 16 -18 12 -28 14 -36 6 -14 -14 -38 -4
-38 16 0 9 -15 30 -32 47 -49 48 -62 66 -74 99 -20 56 -87 40 -167 -40 -24
-24 -55 -49 -68 -56 -44 -24 -127 -93 -143 -121 -10 -15 -29 -33 -44 -41 -39
-20 -65 -53 -77 -94 -12 -43 -55 -64 -80 -39 -8 9 -15 23 -15 32 0 40 -72 29
-90 -14 -17 -42 -48 -44 -117 -5 -32 19 -72 34 -89 34 -38 0 -101 25 -106 42
-3 9 -9 8 -22 -5 -10 -9 -22 -18 -27 -18 -5 -1 -13 -2 -18 -3 -5 0 -12 -4 -16
-8 -8 -7 -81 17 -102 33 -8 7 -13 33 -13 66 0 52 2 55 30 66 17 6 30 17 30 23
0 30 51 71 109 89 34 10 61 24 61 30 0 7 -6 31 -14 53 -13 35 -13 42 0 53 8 6
14 17 14 24 0 6 9 22 19 34 10 12 29 47 41 79 12 31 26 65 31 74 5 10 9 25 9
33 0 9 4 14 9 11 5 -3 14 7 19 22 5 16 35 54 65 85 30 31 62 75 71 97 18 45
36 67 79 93 21 14 27 25 27 55 0 57 19 83 77 107 29 11 63 31 76 43 13 12 32
22 43 22 24 0 78 66 70 86 -7 18 -31 13 -95 -22 -44 -24 -71 -30 -71 -16 0 16
18 31 84 72 38 23 75 48 83 55 7 8 22 16 32 20 21 6 86 135 100 198 7 28 6 47
-2 61 -7 12 -12 30 -12 40 0 14 -13 24 -47 35 -26 9 -59 25 -74 37 -28 21 -28
21 -16 84 6 35 15 66 20 69 5 3 12 16 16 28 7 21 9 22 34 9 15 -8 37 -26 49
-40 16 -18 33 -26 56 -26 30 0 35 4 45 38 16 54 17 184 2 208 -7 11 -25 29
-40 39 -22 15 -29 30 -39 89 -9 49 -10 79 -3 97 10 25 65 79 81 79 5 0 22 14
40 30 17 17 35 29 40 26 8 -5 30 36 84 154 14 30 28 79 31 108 4 29 16 70 27
92 28 54 28 143 0 192 -12 20 -26 51 -32 70 -26 85 -39 141 -39 169 0 16 -6
42 -14 58 -16 30 -99 104 -156 138 -19 12 -55 42 -79 68 -24 25 -51 45 -60 44
-31 -4 -240 63 -251 81 -3 5 -28 11 -55 14 -28 3 -98 10 -157 15 -78 8 -119
17 -156 36 -54 27 -101 31 -151 14 -35 -12 -38 -21 -16 -39 22 -18 19 -51 -5
-57 -24 -6 -25 -12 -5 -49 19 -37 19 -57 -1 -97 -39 -75 -73 -83 -164 -37 -33
17 -60 26 -60 20 0 -6 -11 -16 -25 -22 -14 -6 -25 -17 -25 -25 0 -13 -46 -38
-63 -35 -4 1 -10 -5 -13 -13 -4 -8 -12 -15 -18 -15 -7 0 -25 -14 -40 -31 -21
-23 -32 -28 -49 -23 -19 6 -20 5 -9 -9 11 -13 10 -17 -6 -26 -11 -6 -22 -8
-24 -5 -3 2 -3 -7 -1 -21 4 -19 1 -25 -12 -25 -9 0 -19 -9 -22 -19 -5 -21 -29
-35 -44 -25 -5 3 -8 1 -7 -4 4 -11 -49 -62 -64 -62 -5 0 -24 -11 -40 -26 -17
-14 -37 -23 -44 -20 -7 3 -37 -17 -67 -43 -30 -27 -66 -51 -79 -54 -32 -8
-101 -74 -93 -87 4 -6 -8 -29 -26 -52 -18 -23 -41 -55 -50 -72 -9 -17 -24 -30
-32 -30 -22 2 -99 -74 -119 -116 -9 -19 -31 -50 -47 -68 -17 -18 -31 -36 -31
-40 0 -4 -11 -20 -24 -35 -19 -22 -30 -27 -47 -22 -16 5 -20 3 -16 -6 2 -8 10
-13 16 -12 14 4 15 -14 1 -22 -6 -4 -24 -4 -40 0 -22 5 -30 12 -30 27 0 12 -3
18 -6 15 -4 -3 -16 0 -27 8 -23 16 -78 9 -90 -12 -12 -21 -25 -16 -42 17 -18
35 -36 31 -56 -13 -10 -22 -24 -34 -48 -40 -18 -4 -31 -11 -28 -14 6 -6 -17
-33 -28 -33 -4 0 -5 9 -2 21 3 12 3 18 0 15 -3 -3 -15 1 -26 9 -13 9 -25 11
-32 5 -8 -7 -10 2 -8 33 3 41 9 61 39 121 8 16 11 32 7 35 -4 3 -8 17 -8 30 0
34 -42 44 -93 24 l-38 -15 -37 37 c-31 31 -43 36 -69 33 -37 -6 -80 14 -108
49 -43 55 -17 114 76 174 61 38 76 44 129 45 43 0 76 8 115 27 73 35 95 35
108 -3 9 -23 8 -33 -4 -45 -9 -8 -21 -15 -27 -15 -14 0 -77 -61 -77 -75 0 -17
36 -34 58 -28 14 3 26 21 37 53 12 38 20 47 32 43 12 -5 14 -3 8 8 -8 12 -6
12 8 0 25 -20 22 -93 -5 -140 -21 -36 -20 -71 2 -71 6 0 16 11 22 25 6 14 15
25 19 25 9 0 79 -143 79 -163 0 -9 5 -19 11 -22 6 -4 8 -13 5 -20 -2 -7 3 -20
13 -29 19 -17 41 -21 41 -8 0 5 19 12 42 18 l43 9 -2 70 c-1 39 1 60 4 47 5
-23 28 -40 40 -28 3 3 -2 15 -12 26 -16 18 -16 20 -2 20 14 0 15 4 6 27 -6 15
-14 30 -19 33 -9 6 -14 39 -12 82 2 22 6 25 25 20 20 -5 21 -4 8 12 -8 9 -16
14 -19 12 -2 -3 -14 7 -25 21 -15 18 -17 28 -9 31 7 2 13 22 14 45 1 40 2 39
8 -13 l7 -55 3 45 c5 66 1 83 -19 100 -10 8 -22 33 -26 55 -4 21 -15 56 -26
76 l-19 38 33 -10 c17 -5 37 -15 42 -22 11 -15 42 -30 64 -31 8 -1 24 17 36
39 13 21 28 41 34 43 14 5 15 42 1 42 -5 0 -10 11 -10 25 0 19 -5 25 -22 26
-15 0 -18 2 -8 6 8 3 25 15 38 26 17 16 21 28 17 49 -4 17 -2 28 4 28 6 0 11
-6 11 -12 0 -7 5 -5 11 5 5 9 19 17 29 17 24 0 40 28 40 69 0 16 5 33 10 36 6
3 10 14 10 24 0 9 6 25 13 35 15 21 47 12 47 -14 0 -12 11 -20 35 -24 19 -4
35 -11 35 -16 0 -6 8 -10 18 -10 12 0 24 16 37 50 11 28 23 50 27 50 13 0 9
57 -4 67 -7 6 -25 13 -39 16 -23 6 -28 2 -48 -43 -17 -38 -28 -50 -44 -49 -12
0 -16 3 -9 6 6 2 12 20 12 38 0 19 5 37 10 40 6 4 8 11 4 16 -3 6 2 19 11 29
16 18 16 18 -4 13 -12 -3 -21 -10 -21 -15 0 -6 -11 -7 -26 -4 -14 4 -45 4 -69
1 -39 -6 -43 -10 -55 -48 -11 -37 -31 -67 -44 -67 -12 0 -5 126 9 165 14 39
14 41 -10 58 -15 11 -25 29 -25 44 0 27 38 103 51 103 13 0 31 40 36 77 4 25
1 33 -11 33 -8 0 -18 -4 -21 -10 -3 -5 -14 -10 -24 -10 -10 0 -24 -11 -31 -25
-8 -14 -20 -23 -27 -21 -7 3 -13 2 -13 -2 0 -9 -76 -45 -95 -45 -8 0 -16 -6
-19 -14 -7 -18 -26 -17 -26 2 0 8 5 15 11 15 6 0 9 7 5 15 -3 8 -1 15 3 15 12
0 19 90 8 97 -5 3 -14 -1 -19 -8 -7 -10 -8 -6 -5 14 5 30 -4 39 -43 44 -14 2
-34 6 -45 7 -11 2 -28 4 -39 5 -15 1 -17 8 -14 45 l3 45 -34 -3 c-19 -1 -36
-7 -39 -14 -4 -14 -38 -16 -47 -2 -10 16 -46 -12 -39 -32 6 -19 -20 -26 -31
-8 -3 5 -13 7 -23 4 -14 -5 -14 -3 2 10 11 9 23 16 26 16 4 0 12 12 19 27 11
25 10 29 -10 46 -18 15 -32 17 -64 12 -99 -16 -95 -18 -50 28 22 23 56 60 75
83 19 22 49 51 66 65 28 22 57 46 207 172 35 29 47 46 47 67 0 35 7 41 36 28
20 -10 28 -7 51 16 25 25 26 29 14 62 -7 20 -11 37 -9 38 1 1 26 21 54 44 29
23 56 42 60 42 5 0 15 -9 22 -20 14 -22 35 -18 70 13 18 16 21 27 16 53 -5 28
-2 35 23 50 15 10 74 52 130 94 56 41 118 86 138 100 20 14 45 33 56 42 10 9
37 27 61 39 24 12 60 35 82 52 318 251 767 490 1007 537 31 6 83 24 115 40 32
16 66 30 75 30 8 0 19 4 25 9 18 18 160 69 209 76 28 3 93 19 145 35 52 16
140 41 195 55 55 15 105 30 110 34 6 4 39 9 74 10 36 1 83 6 105 12 69 17 89
17 127 3 37 -12 90 -12 174 3 22 3 144 7 270 8 207 1 235 3 279 21 41 18 56
19 105 11 31 -5 58 -11 60 -13z m-1990 -238 c-2 -2 -48 -20 -102 -40 -154 -57
-460 -199 -492 -229 -13 -11 -28 -16 -43 -12 -32 8 -95 -11 -117 -35 -11 -12
-28 -20 -39 -19 -12 1 -29 -1 -38 -5 -10 -3 -26 -8 -35 -12 -15 -4 -15 -6 -3
-14 8 -5 12 -11 10 -13 -44 -35 -94 -51 -70 -22 23 27 3 28 -55 1 -43 -19 -56
-30 -51 -42 7 -18 -15 -44 -38 -44 -10 0 -13 6 -10 15 4 8 2 15 -2 15 -23 -1
-314 -173 -409 -241 -83 -61 -271 -202 -285 -216 -8 -7 -44 -35 -80 -62 -210
-155 -311 -232 -341 -257 -59 -51 -163 -147 -213 -197 -27 -27 -54 -46 -62
-43 -14 5 -97 -58 -88 -67 13 -13 -23 -47 -48 -47 -16 0 -28 -4 -28 -10 0 -5
-6 -10 -13 -10 -17 0 -41 -43 -35 -62 3 -7 1 -21 -4 -32 -8 -15 -12 -16 -19
-5 -6 10 -9 7 -9 -12 0 -28 -33 -65 -49 -55 -6 4 -19 -1 -30 -11 -10 -10 -31
-29 -46 -42 -20 -18 -25 -30 -20 -49 7 -29 -12 -54 -36 -47 -10 4 -25 -2 -36
-13 -17 -18 -38 -29 -57 -30 -5 0 -12 -4 -15 -9 -3 -5 -22 -20 -41 -33 -19
-14 -44 -33 -55 -43 -24 -23 -101 -77 -109 -77 -32 0 91 144 236 278 20 18 28
35 28 58 0 34 14 52 25 34 11 -18 35 -11 67 19 l32 29 -27 35 c-26 34 -26 35
-7 55 11 11 25 24 32 29 7 4 18 17 24 28 18 32 39 29 59 -10 23 -42 35 -43 71
-10 l28 26 -19 56 -19 56 23 16 c13 9 55 46 95 82 39 37 98 91 131 120 34 30
70 62 80 72 39 37 163 127 175 127 6 0 10 6 8 13 -9 39 401 357 622 482 89 50
170 88 177 81 2 -2 -3 -11 -12 -20 -13 -12 -13 -16 -3 -16 8 0 20 9 28 20 8
11 25 20 37 20 14 0 23 6 23 15 0 8 9 15 19 15 11 0 21 4 23 8 6 17 279 163
330 176 29 8 107 38 173 66 66 28 144 60 174 71 30 10 60 24 67 30 7 6 35 12
61 14 27 2 77 13 112 25 52 18 76 21 134 16 40 -4 86 -2 102 3 29 9 113 15
104 7z m-1043 -141 c-11 -8 -26 -15 -34 -15 -8 0 -28 -6 -45 -13 -31 -13 -109
-39 -262 -86 -38 -11 -140 -44 -225 -73 -85 -28 -170 -56 -187 -62 -39 -13
-44 -31 -7 -22 15 4 40 10 58 13 17 3 36 10 42 14 6 5 24 8 40 7 40 -2 148 18
175 32 12 7 35 24 51 38 18 17 39 26 53 24 13 -2 26 2 30 7 7 13 55 14 74 2 9
-6 -2 -13 -37 -22 -28 -7 -54 -19 -56 -26 -6 -15 10 -12 113 18 88 26 119 23
51 -5 -125 -52 -402 -201 -450 -242 -8 -7 -44 -25 -80 -40 -70 -30 -81 -40
-73 -61 6 -16 -19 -17 -35 -1 -10 10 -18 9 -40 -4 -16 -9 -55 -27 -88 -39 -32
-12 -68 -30 -80 -40 -11 -11 -25 -19 -31 -19 -6 0 -24 -11 -40 -24 -15 -13
-44 -31 -63 -41 -19 -10 -61 -37 -92 -61 -32 -24 -73 -50 -91 -58 -19 -7 -44
-28 -57 -45 -12 -18 -64 -63 -115 -101 -50 -38 -98 -76 -105 -85 -8 -9 -29
-15 -56 -15 -49 0 -74 -11 -116 -52 -18 -17 -27 -35 -26 -50 3 -18 -2 -23 -22
-24 -14 0 -38 -8 -55 -16 -26 -14 -28 -17 -12 -23 10 -4 24 -20 32 -35 13 -25
13 -29 -1 -34 -27 -10 -32 -7 -39 24 -8 37 -41 41 -54 7 -12 -32 -36 -49 -63
-45 -18 2 -24 10 -26 36 -2 18 -9 32 -16 32 -8 0 -19 7 -26 15 -12 14 -35 11
-26 -3 2 -4 -17 -6 -42 -4 l-47 3 29 -15 c15 -9 32 -13 37 -10 5 3 9 -4 9 -15
0 -12 -6 -21 -14 -21 -7 0 -19 -7 -26 -15 -16 -19 -44 -19 -60 0 -10 12 -16
13 -27 4 -27 -23 -25 1 3 25 22 19 25 25 12 26 -9 0 -18 6 -20 13 -3 8 -34 14
-87 17 l-82 5 38 20 c21 11 55 36 75 56 37 36 112 84 233 150 33 17 72 40 87
51 14 10 30 18 34 18 15 0 44 34 44 52 0 23 26 34 45 18 11 -9 20 -8 44 6 37
22 43 36 31 69 -8 21 -5 27 19 45 16 11 34 20 40 20 6 0 20 9 31 20 27 27 37
25 55 -10 l16 -30 37 24 c29 18 38 31 42 61 4 33 10 39 50 54 50 20 160 77
175 92 5 5 15 9 22 9 7 0 58 22 115 48 57 27 128 59 158 73 30 13 72 34 92 46
21 13 40 23 43 23 2 0 42 17 87 39 238 111 582 223 778 254 51 8 56 7 36 -8z
m162 -7 c-6 -18 -28 -21 -28 -4 0 9 7 16 16 16 9 0 14 -5 12 -12z m-391 -104
c-3 -3 -12 -4 -19 -1 -8 3 -5 6 6 6 11 1 17 -2 13 -5z m53 2 c0 -2 -7 -7 -16
-10 -8 -3 -12 -2 -9 4 6 10 25 14 25 6z m4480 -1028 c0 -5 -11 -8 -25 -8 -14
0 -25 5 -25 10 0 6 7 10 15 10 8 0 15 6 15 13 0 13 20 -12 20 -25z m1091 -101
c-13 -13 -26 -3 -16 12 3 6 11 8 17 5 6 -4 6 -10 -1 -17z m-65 -50 c-2 -7 -5
-4 -5 6 -1 10 -5 15 -11 12 -6 -4 -7 1 -3 11 6 15 7 15 15 0 5 -9 7 -22 4 -29z
m154 -12 c-7 -8 -17 -15 -23 -15 -6 0 -2 8 9 19 22 21 33 19 14 -4z m-75 5 c3
-5 1 -10 -4 -10 -6 0 -11 5 -11 10 0 6 2 10 4 10 3 0 8 -4 11 -10z m-7678 -6
c30 -8 19 -24 -17 -24 -31 0 -48 15 -28 23 18 7 20 7 45 1z m7809 -88 c-2 -6
-8 0 -14 14 -5 14 -7 29 -4 34 7 12 24 -33 18 -48z m-7916 -32 c11 -12 10 -18
-3 -32 -16 -15 -18 -15 -34 0 -13 14 -14 20 -3 32 7 9 16 16 20 16 4 0 13 -7
20 -16z m-172 -171 c-1 -79 -6 -93 -62 -153 -23 -25 -62 -74 -86 -110 -53 -78
-66 -89 -106 -90 -23 0 -34 6 -42 25 -8 17 -20 25 -37 25 -20 0 -29 8 -41 36
-14 32 -13 38 1 60 9 13 32 37 53 52 70 51 192 155 192 163 0 16 75 59 102 59
26 0 26 -1 26 -67z m1552 -55 c0 -16 -3 -19 -11 -11 -6 6 -8 16 -5 22 11 17
16 13 16 -11z m-20 -28 c27 0 26 -16 -2 -24 -34 -9 -50 -7 -43 4 3 6 1 10 -4
10 -6 0 -11 -5 -11 -12 0 -9 -3 -9 -11 -1 -6 6 -8 21 -4 33 6 20 8 20 31 6 13
-9 32 -16 44 -16z m5550 -55 c0 -8 5 -15 11 -15 5 0 8 -4 4 -10 -9 -15 -35 0
-35 21 0 10 5 19 10 19 6 0 10 -7 10 -15z m-5746 -51 c21 -8 20 -40 -1 -48 -9
-4 -23 0 -31 8 -13 12 -13 18 -2 30 14 18 13 18 34 10z m5696 -24 c13 -8 13
-10 -2 -10 -9 0 -20 5 -23 10 -8 13 5 13 25 0z m-330 -70 c0 -5 -6 -10 -14
-10 -8 0 -18 5 -21 10 -3 6 3 10 14 10 12 0 21 -4 21 -10z m800 -27 c0 -3 -27
-31 -60 -60 -35 -32 -75 -81 -96 -120 -40 -71 -81 -197 -86 -265 -3 -40 -1
-43 25 -46 34 -4 53 -35 32 -52 -8 -7 -26 -10 -39 -6 -19 5 -25 1 -30 -17 -18
-68 5 -262 38 -312 9 -13 16 -32 16 -41 0 -14 -7 -16 -50 -10 -50 7 -50 7 -50
-21 0 -26 6 -31 78 -58 89 -33 124 -53 116 -66 -3 -5 0 -9 5 -9 6 0 11 -10 11
-22 0 -12 12 -32 26 -44 21 -19 24 -26 15 -43 -10 -18 -7 -22 20 -36 17 -9 38
-14 47 -10 8 3 42 -7 74 -22 51 -24 58 -31 55 -51 -3 -16 1 -26 12 -29 31 -11
51 -36 51 -64 0 -19 6 -30 20 -34 11 -3 20 -10 20 -14 0 -5 12 -14 28 -20 15
-7 41 -33 57 -59 31 -49 97 -182 110 -222 4 -13 22 -46 39 -74 17 -28 32 -57
34 -65 2 -7 17 -34 33 -58 26 -37 33 -42 46 -32 12 11 10 16 -16 41 -40 37
-44 57 -25 109 10 24 22 89 28 144 l11 100 38 6 c21 3 42 10 46 15 9 10 31 71
52 144 7 25 19 52 27 62 7 9 15 25 17 35 2 10 4 18 5 18 0 0 2 37 4 82 3 63 8
88 25 111 26 38 26 45 -1 57 -19 9 -22 18 -23 72 -1 69 6 92 22 71 15 -19 33
-77 33 -104 0 -17 9 -28 34 -38 40 -17 56 -59 31 -85 -17 -20 -20 -57 -5 -66
6 -3 10 -15 10 -26 0 -11 6 -22 14 -25 8 -3 17 -24 21 -47 3 -23 20 -98 37
-167 23 -95 36 -130 54 -145 32 -28 54 -85 54 -143 0 -68 17 -110 51 -128 46
-24 34 -33 -41 -30 -50 1 -70 -1 -70 -10 0 -7 -5 -14 -12 -16 -12 -4 -8 -20
14 -50 17 -24 -2 -43 -36 -34 -19 5 -26 13 -26 31 0 24 -16 42 -28 30 -3 -3
-1 -9 6 -14 8 -5 2 -15 -18 -33 -27 -24 -30 -24 -30 -7 0 10 -4 19 -10 19 -5
0 -10 9 -10 20 0 30 -29 70 -50 70 -13 0 -23 -15 -35 -50 -9 -27 -23 -50 -30
-50 -14 0 -25 -22 -25 -51 0 -11 -7 -22 -15 -25 -8 -4 -15 -12 -15 -19 0 -12
-38 -32 -44 -23 -1 1 -8 16 -16 32 -41 81 -50 86 -50 24 0 -24 -5 -61 -12 -83
-6 -22 -11 -43 -10 -47 1 -4 -7 -22 -17 -39 -11 -17 -17 -37 -14 -45 2 -7 -7
-20 -21 -29 -14 -10 -26 -22 -26 -29 -1 -17 -43 -64 -60 -66 -32 -5 -40 1 -40
28 -1 15 -9 43 -20 62 -16 29 -19 31 -20 13 0 -25 -20 -43 -20 -18 0 9 -12 18
-30 22 -29 5 -31 8 -29 47 4 76 -11 197 -28 229 -9 18 -22 73 -28 122 -10 75
-20 108 -64 196 -29 58 -69 127 -89 152 -20 25 -49 64 -64 87 -16 22 -47 52
-70 68 -43 28 -128 109 -163 156 -11 14 -23 26 -27 26 -4 0 -18 11 -32 25 -14
14 -32 25 -41 25 -31 0 -121 34 -178 68 -68 41 -97 74 -97 113 0 20 -8 34 -26
46 l-26 17 40 36 c38 35 39 38 34 89 -5 58 12 240 30 311 20 78 99 190 245
350 18 19 33 38 33 43 0 4 4 7 9 7 5 0 36 15 69 34 33 19 87 41 119 49 69 18
73 19 73 10z m668 -5 c17 -17 15 -36 -8 -68 -18 -25 -19 -31 -6 -66 8 -22 18
-38 23 -37 11 2 14 -11 16 -86 2 -48 -1 -56 -24 -73 -15 -11 -35 -18 -44 -16
-18 3 -18 4 1 22 18 19 18 20 0 13 -14 -6 -17 -4 -12 9 5 14 4 15 -7 5 -17
-14 -31 0 -41 42 -3 15 -11 27 -18 27 -18 0 -37 33 -38 67 0 36 44 108 91 147
34 29 49 32 67 14z m677 -12 c15 -11 18 -25 16 -82 -4 -172 -59 -304 -127
-304 -15 0 -16 8 -10 77 10 105 44 273 62 301 17 25 32 28 59 8z m-7654 -3 c5
-24 11 -94 12 -129 1 -32 -6 -51 -35 -91 -20 -28 -51 -84 -68 -124 -18 -41
-39 -82 -48 -91 -20 -24 -58 -23 -89 2 -14 11 -36 20 -49 20 -27 0 -54 34 -54
68 0 15 20 45 53 80 49 53 127 146 186 222 29 39 88 65 92 43z m524 -23 c-3
-5 -16 -10 -28 -9 -20 1 -20 2 3 9 14 4 26 8 28 9 2 1 0 -3 -3 -9z m161 -36
c-1 -20 -7 -39 -13 -42 -19 -13 -53 -91 -53 -122 0 -33 -24 -68 -35 -50 -3 5
-3 10 2 10 13 0 8 77 -6 94 -8 9 -11 19 -7 23 3 4 12 -2 20 -12 13 -18 14 -18
19 1 3 10 9 35 13 54 12 60 23 80 43 80 17 0 20 -6 17 -36z m-191 -60 c53 -22
72 -52 77 -121 2 -35 1 -63 -4 -63 -4 0 -8 -5 -8 -12 0 -9 3 -9 12 0 20 20 27
14 22 -20 -3 -23 1 -41 14 -57 l20 -24 12 24 c13 23 14 23 25 -21 9 -38 8 -52
-7 -88 -12 -28 -15 -49 -9 -60 4 -9 6 -23 4 -30 -9 -25 -33 9 -33 47 0 41 -19
81 -21 46 -1 -11 -1 -25 0 -31 2 -16 -160 -25 -194 -10 -11 5 -35 10 -53 12
-18 2 -40 10 -48 19 -9 8 -23 15 -32 15 -25 0 -67 41 -80 77 -7 22 -8 53 -1
99 9 65 11 69 75 131 36 36 80 71 97 78 33 14 82 10 132 -11z m7324 -173 c12
-8 13 -14 3 -36 -7 -14 -10 -36 -7 -48 11 -42 -151 -257 -192 -257 -26 1 -49
21 -56 51 -5 21 3 36 43 84 28 33 50 65 50 72 0 7 5 13 10 13 6 0 10 6 10 14
0 13 107 116 119 116 4 0 12 -4 20 -9z m-1359 -26 c0 -8 -4 -15 -10 -15 -5 0
-10 7 -10 15 0 8 5 15 10 15 6 0 10 -7 10 -15z m-5460 -15 c0 -5 -5 -10 -11
-10 -5 0 -7 5 -4 10 3 6 8 10 11 10 2 0 4 -4 4 -10z m-1386 -271 c41 -32 35
-77 -27 -200 -31 -62 -58 -103 -65 -101 -8 1 -11 -2 -7 -8 7 -11 -8 -38 -44
-79 -11 -13 -21 -28 -21 -33 0 -4 -7 -8 -15 -8 -8 0 -15 -7 -15 -15 0 -8 -6
-15 -14 -15 -8 0 -16 -3 -18 -7 -4 -11 -67 -43 -82 -43 -38 0 -61 68 -46 137
24 109 183 334 265 377 40 21 58 20 89 -5z m7526 -194 c0 -21 -17 -27 -40 -15
-23 12 -18 32 5 23 8 -3 15 0 15 7 0 6 5 8 10 5 6 -3 10 -12 10 -20z m956 10
c4 -8 12 -15 19 -15 30 0 40 -277 11 -308 -9 -10 -16 -25 -16 -33 -1 -28 -39
-99 -55 -99 -8 0 -15 7 -15 15 0 8 -8 14 -17 13 -43 -3 -52 3 -72 55 -10 30
-24 89 -30 131 -10 69 -9 83 8 119 27 60 86 125 119 130 15 2 31 5 35 6 4 0
10 -6 13 -14z m-7576 -154 c0 -6 -4 -13 -10 -16 -5 -3 -10 1 -10 9 0 9 5 16
10 16 6 0 10 -4 10 -9z m1665 -81 c22 -6 54 -17 70 -24 17 -8 53 -24 80 -36
28 -13 82 -48 120 -79 39 -31 94 -74 123 -95 28 -21 52 -41 52 -44 0 -4 10
-12 22 -17 28 -12 34 -38 15 -57 -8 -8 -24 -36 -36 -61 -18 -40 -26 -47 -50
-47 -15 0 -36 9 -45 19 -9 10 -37 22 -60 25 -28 5 -57 19 -82 40 -65 55 -129
86 -247 122 -132 40 -238 44 -427 18 -243 -34 -358 -107 -474 -304 -75 -127
-94 -194 -101 -362 -4 -84 -13 -159 -21 -181 -8 -20 -14 -48 -14 -62 0 -39
-31 -49 -109 -35 -36 6 -74 14 -83 16 -18 5 -63 73 -59 89 2 6 9 39 16 75 10
54 89 251 114 285 4 6 14 26 22 45 7 19 28 57 46 85 18 27 33 54 33 59 0 16
82 119 145 181 89 88 217 191 302 241 41 24 76 44 79 44 2 0 27 11 56 24 118
55 131 57 308 52 91 -3 183 -10 205 -16z m-1601 -136 c9 -24 7 -28 -9 -14 -17
14 -20 30 -6 30 5 0 12 -7 15 -16z m7277 -30 c17 -21 0 -49 -32 -49 -18 0 -25
6 -27 24 -6 38 34 55 59 25z m-1945 -250 c16 -24 16 -27 -3 -52 -26 -35 -55
-35 -67 0 -7 20 -5 33 8 52 21 33 41 33 62 0z m924 -13 c6 -13 6 -22 1 -26 -9
-5 -31 24 -31 39 0 14 20 4 30 -13z m-5060 -6 c10 -12 9 -20 -4 -40 -19 -29
-38 -32 -56 -10 -10 12 -10 21 -2 40 13 28 43 33 62 10z m5618 -7 c-6 -18 -28
-21 -28 -4 0 9 7 16 16 16 9 0 14 -5 12 -12z m-5137 -41 c-13 -13 -26 -3 -16
12 3 6 11 8 17 5 6 -4 6 -10 -1 -17z m2935 -103 c6 -7 16 -14 21 -14 20 0 55
-48 51 -72 -2 -18 -8 -22 -28 -20 -14 1 -36 11 -50 22 -14 11 -35 24 -47 30
-12 5 -27 18 -32 29 -24 44 53 67 85 25z m-4669 -69 c21 -21 15 -24 -32 -16
-36 6 -38 8 -20 19 27 15 34 15 52 -3z m-57 -171 c0 -8 -4 -12 -10 -9 -5 3
-10 10 -10 16 0 5 5 9 10 9 6 0 10 -7 10 -16z m-1035 -27 c-6 -22 -4 -23 23
-19 33 4 88 -27 120 -69 35 -46 62 -100 62 -125 0 -14 6 -24 15 -24 21 0 30
-48 16 -84 -7 -17 -19 -55 -26 -85 -12 -50 -30 -75 -46 -65 -4 2 -9 -6 -12
-18 -3 -20 -6 -18 -21 16 -17 39 -63 112 -81 132 -5 5 -18 13 -28 17 -20 8
-57 87 -57 122 0 14 -9 47 -20 75 -19 47 -19 53 -4 81 15 29 49 69 59 69 3 0
3 -11 0 -23z m8070 3 c-3 -5 -10 -10 -16 -10 -5 0 -9 5 -9 10 0 6 7 10 16 10
8 0 12 -4 9 -10z m5 -30 c0 -5 -4 -10 -10 -10 -5 0 -10 5 -10 10 0 6 5 10 10
10 6 0 10 -4 10 -10z m-7406 -17 c9 -22 -10 -41 -25 -26 -13 13 -5 43 10 43 5
0 12 -8 15 -17z m4306 -138 c10 -12 9 -16 -4 -21 -22 -8 -46 2 -46 21 0 19 34
20 50 0z m159 -19 c65 -67 12 -101 -72 -45 -26 17 -47 35 -47 40 0 11 50 38
71 39 8 0 30 -15 48 -34z m-4481 -178 c-6 -18 -28 -21 -28 -4 0 9 7 16 16 16
9 0 14 -5 12 -12z m37 -17 c-3 -6 -14 -11 -23 -11 -15 1 -15 2 2 15 21 16 32
13 21 -4z m4150 -92 c6 -9 -38 -83 -56 -95 -16 -9 -58 8 -64 27 -12 35 4 59
38 59 18 0 39 5 47 10 19 13 27 12 35 -1z m3445 1 c0 -5 -7 -10 -16 -10 -8 0
-12 5 -9 10 3 6 10 10 16 10 5 0 9 -4 9 -10z m-80 -59 c-1 -20 -12 -33 -44
-53 -24 -16 -49 -28 -55 -28 -6 0 -11 -4 -11 -10 0 -19 -15 -10 -32 21 -22 37
-9 64 36 75 17 4 42 10 56 14 43 10 50 8 50 -19z m-2970 -161 c0 -15 -42 -50
-61 -50 -37 0 -44 39 -9 53 25 9 70 8 70 -3z m2970 -5 c0 -8 -7 -15 -15 -15
-12 0 -15 -13 -15 -55 0 -49 -3 -57 -25 -67 -14 -6 -25 -15 -25 -20 0 -13 -82
-9 -110 5 -42 21 -37 51 19 107 51 51 75 59 113 39 17 -9 23 -8 30 5 11 20 28
21 28 1z m70 -55 c0 -5 -4 -10 -10 -10 -5 0 -10 5 -10 10 0 6 5 10 10 10 6 0
10 -4 10 -10z m-8470 -245 c0 -8 -4 -15 -10 -15 -5 0 -7 7 -4 15 4 8 8 15 10
15 2 0 4 -7 4 -15z m7778 -4 c21 -13 11 -55 -14 -59 -18 -3 -20 1 -16 33 4 37
8 40 30 26z m-3038 -55 c0 -3 -4 -8 -10 -11 -5 -3 -10 -1 -10 4 0 6 5 11 10
11 6 0 10 -2 10 -4z m3664 -203 c36 -38 76 -79 90 -94 21 -20 25 -31 20 -57
-5 -25 -1 -38 25 -71 19 -23 31 -50 31 -67 -1 -42 -45 -137 -68 -147 -38 -17
-66 -107 -34 -107 5 0 17 9 27 20 20 22 50 26 60 9 4 -6 -2 -20 -13 -32 -11
-12 -25 -42 -32 -67 -6 -25 -16 -56 -23 -69 -9 -19 -9 -25 1 -28 6 -3 9 -9 6
-15 -3 -5 2 -8 12 -6 13 2 19 -3 19 -17 0 -11 -7 -20 -15 -20 -8 0 -16 -10
-18 -22 -3 -20 -6 -21 -23 -12 -17 8 -25 6 -46 -15 -14 -14 -32 -28 -42 -31
-9 -2 -26 -24 -39 -48 -28 -53 -61 -77 -74 -53 -11 20 -48 21 -48 2 0 -20 -25
-65 -49 -87 -23 -22 -27 -39 -10 -56 13 -13 4 -33 -14 -33 -9 0 -9 2 -1 8 9 5
8 10 -1 19 -10 10 -16 9 -25 -2 -7 -8 -9 -15 -5 -15 4 0 2 -7 -5 -15 -17 -20
-5 -32 15 -15 11 9 15 9 15 1 0 -6 -7 -14 -15 -17 -8 -4 -15 -13 -15 -21 0
-12 -3 -13 -14 -4 -10 9 -15 8 -20 -4 -3 -8 -11 -15 -17 -15 -7 0 -17 -8 -24
-17 -11 -15 -13 -14 -20 8 -9 28 -22 39 -51 39 -12 0 -33 9 -46 20 -14 10 -27
17 -30 15 -2 -2 -11 16 -21 41 -16 44 -16 45 8 66 17 15 24 31 24 57 0 20 3
72 6 116 11 155 6 201 -35 307 -21 53 -21 58 -6 79 21 30 20 64 -1 100 -9 15
-15 30 -12 32 2 2 24 20 49 39 34 27 59 39 97 44 39 5 54 11 58 25 4 11 11 19
16 19 5 0 9 10 9 23 0 13 15 34 36 52 19 17 44 38 55 48 10 9 26 17 34 17 8 0
15 8 15 17 0 16 97 121 113 122 4 1 36 -29 71 -66z m-7764 -293 c14 -28 40
-115 40 -133 0 -10 -4 -15 -10 -12 -16 10 -10 -36 9 -80 16 -37 19 -38 25 -18
4 13 4 27 1 33 -7 11 24 70 37 70 13 0 58 -47 58 -62 0 -22 12 -29 27 -17 16
14 87 6 108 -11 19 -16 19 -90 1 -135 -23 -53 -66 -105 -85 -101 -9 2 -36 12
-61 24 -34 16 -49 30 -62 61 -13 29 -22 39 -33 35 -9 -4 -24 1 -34 10 -10 9
-20 13 -24 10 -3 -3 -19 3 -36 15 -23 17 -29 27 -26 50 3 19 -4 40 -21 62 -30
42 -31 82 -1 106 25 20 47 64 47 94 0 24 28 23 40 -1z m928 -292 c18 -18 15
-28 -8 -28 -13 0 -20 7 -20 20 0 23 10 26 28 8z m2782 -158 c0 -13 -5 -18 -15
-14 -12 5 -13 10 -4 20 15 19 19 18 19 -6z m-3322 -2 c7 -7 26 -12 44 -13 30
0 40 -9 53 -50 6 -19 7 -19 16 -2 22 39 59 3 59 -57 0 -29 32 -59 54 -50 12 5
15 2 9 -12 -4 -11 -3 -15 4 -11 14 9 35 -51 31 -85 -6 -39 -45 -85 -78 -90
-43 -6 -86 15 -94 47 -6 22 -9 25 -21 15 -12 -10 -20 -9 -40 4 -47 31 -62 56
-75 129 -7 42 -22 84 -35 102 -12 16 -20 37 -18 45 12 36 66 53 91 28z m2268
-344 c-6 -16 -8 -16 -20 1 -10 15 -11 23 -2 37 11 18 11 18 20 -1 5 -11 6 -28
2 -37z m44 10 c0 -8 -4 -12 -10 -9 -5 3 -10 10 -10 16 0 5 5 9 10 9 6 0 10 -7
10 -16z m4850 6 c0 -5 -5 -10 -11 -10 -5 0 -7 5 -4 10 3 6 8 10 11 10 2 0 4
-4 4 -10z m-6952 -268 c16 -21 15 -32 -2 -32 -9 0 -12 -7 -9 -20 4 -16 0 -20
-20 -20 -43 0 -66 69 -30 88 20 12 43 5 61 -16z m245 -45 c12 -13 29 -32 37
-43 8 -11 21 -28 29 -37 30 -38 43 -169 19 -193 -14 -14 -19 -14 -49 1 -19 10
-38 24 -42 31 -4 8 -14 14 -22 14 -8 0 -17 5 -21 12 -5 7 -3 8 7 3 8 -5 7 0
-3 12 -10 11 -18 24 -18 29 0 5 -16 22 -34 38 -29 25 -33 33 -25 53 5 13 8 27
6 31 -3 11 26 47 48 60 30 17 43 15 68 -11z m-223 -16 c0 -20 -13 -35 -23 -25
-7 8 4 44 14 44 5 0 9 -9 9 -19z m135 -161 c3 -5 1 -10 -4 -10 -6 0 -11 5 -11
10 0 6 2 10 4 10 3 0 8 -4 11 -10z m-34 -63 c-10 -9 -11 -8 -5 6 3 10 9 15 12
12 3 -3 0 -11 -7 -18z m4195 -244 c56 -10 96 -35 143 -88 24 -28 29 -40 22
-54 -9 -17 -71 -41 -105 -41 -9 0 -16 -4 -16 -10 0 -5 -8 -10 -18 -10 -10 0
-23 -5 -29 -11 -9 -9 -23 -9 -57 1 -26 7 -46 17 -46 21 0 19 -21 8 -30 -16
-11 -29 -22 -30 -102 -9 -39 10 -68 24 -84 42 -22 25 -25 26 -35 10 -15 -26
-56 -22 -74 6 -14 22 -14 27 11 75 15 29 35 56 45 61 9 6 45 6 83 1 60 -7 70
-5 99 15 34 24 81 26 193 7z m-2536 -101 c0 -13 -15 -23 -54 -35 -51 -17 -86
-15 -86 4 0 5 7 9 15 9 9 0 18 7 21 15 4 8 12 15 20 15 8 0 14 -7 14 -15 0
-22 38 -18 50 5 13 25 20 25 20 2z m215 -126 c22 -17 34 -36 38 -60 3 -20 19
-52 36 -73 37 -48 44 -102 16 -133 -34 -37 -90 -60 -148 -60 -44 0 -62 5 -96
31 -28 20 -52 29 -69 27 -22 -3 -27 2 -33 29 -8 40 -1 79 17 94 8 6 14 19 14
28 0 9 27 44 60 79 52 54 64 62 96 62 24 0 49 -9 69 -24z m2560 -5 c-3 -6 -14
-11 -23 -11 -13 0 -13 2 4 14 21 15 30 14 19 -3z m-3657 -63 c22 -22 14 -57
-14 -64 -38 -10 -61 17 -46 51 12 27 40 33 60 13z m3127 -138 c8 -13 -5 -13
-25 0 -13 8 -13 10 2 10 9 0 20 -4 23 -10z m195 -16 c0 -14 -12 -19 -23 -8 -9
9 4 35 14 28 5 -3 9 -12 9 -20z m-2750 -323 c0 -5 10 -13 23 -16 32 -9 91 -39
95 -47 2 -5 8 -8 13 -8 5 0 48 -18 96 -41 47 -22 97 -45 110 -50 22 -8 32 -29
14 -29 -12 0 -104 28 -184 56 -38 13 -89 24 -115 24 -44 0 -48 3 -64 36 -22
43 -23 84 -3 84 8 0 15 -4 15 -9z"/>
<path d="M5947 9260 c7 -25 19 -34 28 -20 3 5 17 10 31 10 13 0 24 4 24 9 0 5
-15 9 -34 9 -19 0 -39 3 -44 6 -6 3 -8 -2 -5 -14z"/>
<path d="M3600 8921 c-136 -68 -261 -138 -275 -153 -7 -8 -4 -9 10 -3 11 4 34
12 50 17 17 6 37 17 46 24 8 8 28 14 43 14 14 0 29 7 32 15 4 8 9 13 13 11 12
-7 52 14 46 24 -3 5 -1 10 4 10 6 0 11 -6 11 -12 0 -8 3 -9 8 -3 4 6 16 15 27
21 11 6 18 14 15 18 -3 4 19 21 48 37 49 29 61 39 45 39 -5 0 -60 -27 -123
-59z m17 -27 c-3 -3 -12 -4 -19 -1 -8 3 -5 6 6 6 11 1 17 -2 13 -5z"/>
<path d="M2441 7849 c-23 -18 -26 -36 -12 -58 8 -12 14 -12 40 -1 28 11 33 17
30 36 0 4 5 10 11 14 19 12 2 30 -24 28 -13 -1 -33 -10 -45 -19z"/>
<path d="M2354 7773 c-16 -26 -7 -41 21 -35 28 5 29 6 15 33 -13 24 -22 24
-36 2z"/>
<path d="M2178 7612 c-10 -2 -18 -10 -18 -18 0 -12 4 -12 21 -2 17 11 22 10
30 -4 13 -24 29 -23 29 1 0 19 -29 30 -62 23z"/>
<path d="M1920 7600 c-12 -8 -10 -10 8 -10 13 0 20 4 17 10 -7 12 -6 12 -25 0z"/>
<path d="M2093 7592 c-8 -5 2 -8 25 -9 28 0 32 1 17 7 -26 11 -28 11 -42 2z"/>
<path d="M7645 7470 c-3 -5 -1 -10 4 -10 6 0 11 5 11 10 0 6 -2 10 -4 10 -3 0
-8 -4 -11 -10z"/>
<path d="M2401 7294 c0 -11 3 -14 6 -6 3 7 2 16 -1 19 -3 4 -6 -2 -5 -13z"/>
<path d="M2800 7295 c0 -7 -7 -18 -16 -23 -22 -12 -9 -32 21 -32 18 0 23 4 19
15 -4 11 1 15 17 16 17 1 19 3 7 6 -10 2 -18 11 -18 19 0 8 -7 14 -15 14 -8 0
-15 -7 -15 -15z"/>
<path d="M2659 7173 c-13 -17 -13 -17 6 -3 11 8 22 16 24 17 2 2 0 3 -6 3 -6
0 -17 -8 -24 -17z"/>
<path d="M2875 7070 c-3 -5 -3 -14 0 -20 3 -5 0 -7 -9 -4 -11 4 -13 0 -9 -16
7 -26 48 -54 64 -44 8 5 7 9 -5 16 -9 5 -16 16 -16 24 0 12 4 12 20 4 11 -6
20 -17 20 -25 0 -8 5 -15 10 -15 19 0 10 20 -24 55 -37 38 -42 40 -51 25z"/>
<path d="M2957 6983 c-12 -11 -8 -23 8 -23 8 0 15 7 15 15 0 16 -12 20 -23 8z"/>
<path d="M2902 6855 c-7 -14 -12 -37 -12 -50 0 -14 -4 -25 -8 -25 -5 0 -9 -6
-9 -12 0 -7 -3 -38 -7 -68 -5 -45 -4 -51 5 -33 7 13 20 25 29 28 9 3 23 24 30
48 15 48 30 70 30 43 0 -9 4 -14 10 -11 10 6 7 13 -23 70 -20 39 -31 41 -45
10z"/>
<path d="M2711 6764 c0 -11 3 -14 6 -6 3 7 2 16 -1 19 -3 4 -6 -2 -5 -13z"/>
<path d="M2765 6630 c3 -5 8 -10 11 -10 2 0 4 5 4 10 0 6 -5 10 -11 10 -5 0
-7 -4 -4 -10z"/>
<path d="M2790 6570 c0 -5 -7 -10 -15 -10 -8 0 -15 -5 -15 -10 0 -7 6 -7 20 0
18 10 28 30 15 30 -3 0 -5 -4 -5 -10z"/>
<path d="M2640 6392 c0 -8 -9 -25 -20 -39 -11 -14 -20 -33 -19 -42 0 -10 2
-12 6 -3 2 6 10 12 16 12 19 0 38 50 27 69 -7 11 -9 12 -10 3z"/>
<path d="M3065 6389 c-4 -6 -5 -12 -2 -15 2 -3 7 2 10 11 7 17 1 20 -8 4z"/>
<path d="M2448 5993 c6 -2 18 -2 25 0 6 3 1 5 -13 5 -14 0 -19 -2 -12 -5z"/>
<path d="M1897 5954 c-4 -4 -4 -10 -1 -15 6 -10 34 0 34 12 0 10 -24 12 -33 3z"/>
<path d="M3830 3431 c0 -5 9 -7 20 -4 11 3 20 7 20 9 0 2 -9 4 -20 4 -11 0
-20 -4 -20 -9z"/>
<path d="M3780 3280 c0 -15 21 -23 32 -12 6 6 2 11 -11 15 -12 3 -21 1 -21 -3z"/>
<path d="M2967 8879 c7 -7 15 -10 18 -7 3 3 -2 9 -12 12 -14 6 -15 5 -6 -5z"/>
<path d="M2885 8820 c-17 -7 -15 -9 13 -9 17 -1 32 4 32 9 0 12 -17 12 -45 0z"/>
<path d="M2725 8757 c-33 -22 -61 -44 -63 -49 -2 -4 -9 -8 -15 -8 -6 0 -49
-25 -96 -57 -47 -31 -117 -77 -156 -102 -38 -25 -107 -74 -153 -108 -46 -34
-89 -64 -95 -66 -9 -3 -9 -8 0 -17 9 -10 18 -8 43 10 17 12 38 19 46 16 11 -4
15 -2 11 8 -7 18 28 50 43 41 6 -4 15 -16 19 -27 7 -19 7 -19 33 2 15 11 25
27 22 34 -3 8 0 17 7 22 7 4 15 2 17 -4 2 -7 8 -12 13 -12 4 0 6 7 3 15 -4 11
-2 13 9 9 9 -3 24 3 34 13 11 11 27 22 36 26 9 3 17 11 17 17 0 6 -5 8 -12 4
-8 -5 -9 -2 -5 10 4 10 7 24 7 31 0 17 66 56 88 53 9 -2 17 4 17 12 0 8 5 15
10 16 21 2 85 35 85 44 0 5 7 7 17 3 13 -5 15 -2 10 16 -4 17 -3 20 7 11 10
-7 21 -6 42 5 16 8 35 15 42 15 6 0 12 6 12 13 0 7 12 20 28 30 l27 18 -30 -6
c-16 -4 -32 -10 -35 -14 -3 -5 -16 -14 -30 -21 l-25 -13 19 22 c32 35 14 31
-49 -12z m-375 -327 c0 -5 -4 -10 -10 -10 -5 0 -10 5 -10 10 0 6 5 10 10 10 6
0 10 -4 10 -10z"/>
<path d="M2875 8780 c-3 -6 1 -7 9 -4 18 7 21 14 7 14 -6 0 -13 -4 -16 -10z"/>
<path d="M2737 8690 c-14 -11 -30 -20 -36 -20 -6 0 -11 -4 -11 -10 0 -5 -5
-10 -10 -10 -6 0 -29 -13 -52 -30 -22 -16 -47 -30 -53 -30 -7 0 -15 -9 -18
-20 -7 -26 -6 -26 45 10 24 17 73 50 111 75 37 25 67 47 67 50 0 11 -18 4 -43
-15z"/>
<path d="M2080 8309 c0 -5 5 -7 10 -4 6 3 10 8 10 11 0 2 -4 4 -10 4 -5 0 -10
-5 -10 -11z"/>
<path d="M2186 8305 c-11 -8 -15 -15 -9 -15 6 0 16 7 23 15 16 19 11 19 -14 0z"/>
<path d="M1575 7840 c-3 -5 -2 -10 4 -10 5 0 13 5 16 10 3 6 2 10 -4 10 -5 0
-13 -4 -16 -10z"/>
<path d="M1392 7678 c2 -6 10 -14 16 -16 7 -2 10 2 6 12 -7 18 -28 22 -22 4z"/>
<path d="M2676 8911 c-4 -5 3 -7 14 -4 23 6 26 13 6 13 -8 0 -17 -4 -20 -9z"/>
<path d="M7533 6313 c-7 -2 -13 -14 -13 -26 0 -16 3 -18 12 -9 9 9 22 45 15
41 -1 0 -8 -3 -14 -6z"/>
<path d="M8765 6970 c3 -5 8 -10 11 -10 2 0 4 5 4 10 0 6 -5 10 -11 10 -5 0
-7 -4 -4 -10z"/>
<path d="M8756 6947 c3 -10 9 -15 12 -12 3 3 0 11 -7 18 -10 9 -11 8 -5 -6z"/>
<path d="M1185 6200 c-3 -5 -2 -10 4 -10 5 0 13 5 16 10 3 6 2 10 -4 10 -5 0
-13 -4 -16 -10z"/>
<path d="M1710 10490 c0 -5 5 -10 10 -10 6 0 10 5 10 10 0 6 -4 10 -10 10 -5
0 -10 -4 -10 -10z"/>
<path d="M960 10375 c0 -10 7 -15 18 -13 21 4 19 22 -2 26 -10 2 -16 -3 -16
-13z"/>
<path d="M10567 10194 c-3 -3 -3 -12 0 -20 4 -10 0 -12 -10 -8 -9 3 -23 2 -32
-3 -11 -7 2 -10 44 -11 33 -1 63 3 66 8 4 6 3 10 -2 9 -21 -4 -33 2 -33 16 0
15 -21 21 -33 9z"/>
<path d="M10625 10120 c3 -5 8 -10 11 -10 2 0 4 5 4 10 0 6 -5 10 -11 10 -5 0
-7 -4 -4 -10z"/>
<path d="M10470 10070 c-26 -16 -3 -21 31 -6 31 13 32 14 9 15 -14 0 -32 -3
-40 -9z"/>
<path d="M10751 9932 c-19 -9 -36 -22 -38 -27 -6 -19 21 -43 55 -50 l32 -7 0
51 c0 28 -3 51 -7 51 -5 0 -23 -8 -42 -18z"/>
<path d="M6558 9753 c7 -3 16 -2 19 1 4 3 -2 6 -13 5 -11 0 -14 -3 -6 -6z"/>
<path d="M0 9415 l0 -133 88 -7 c48 -5 159 -5 247 -1 138 6 172 11 245 36 75
25 85 31 84 52 -2 72 -4 78 -24 78 -11 0 -20 4 -20 9 0 5 -9 13 -20 16 -13 4
-20 15 -20 31 0 41 -27 28 -35 -16 -4 -25 -12 -40 -21 -40 -8 0 -14 5 -14 10
0 7 -6 7 -19 0 -26 -13 -57 -13 -81 2 -14 9 -24 9 -42 1 -37 -19 -80 -13 -100
13 -14 17 -26 22 -50 19 -17 -3 -37 0 -44 6 -7 5 -27 11 -46 13 -37 3 -60 10
-100 31 l-28 14 0 -134z"/>
<path d="M738 9493 c12 -2 32 -2 45 0 12 2 2 4 -23 4 -25 0 -35 -2 -22 -4z"/>
</g>
</svg>
